<svg width="90" height="28" viewBox="0 0 90 28" fill="none" xmlns="http://www.w3.org/2000/svg">
<path d="M0 0H90V28H0V0Z" fill="#9B9089"/>
<path d="M90 0V28H0V0H90ZM1 27H89V1H1V27Z" fill="#2B2723"/>
<path d="M75 18V12H80V13H81V18H79V13H77V18H75Z" fill="#FFEF00"/>
<path d="M73 17V16H74V17H73ZM73 14V13H74V14H73ZM70 18V17H69V13H70V12H73V13H71V17H73V18H70Z" fill="#FFEF00"/>
<path d="M66 15V13H64V15H66ZM63 18V17H62V13H63V12H67V13H68V16H64V17H68V18H63Z" fill="#FFEF00"/>
<path d="M59 17V13H57V17H59ZM55 21V13H56V12H60V13H61V17H60V18H57V21H55Z" fill="#FFEF00"/>
<path d="M52 17V15H50V17H52ZM52 14V13H50V14H52ZM49 18V17H48V15H49V14H48V13H49V12H53V13H54V18H49Z" fill="#FFEF00"/>
<path d="M46 17V16H47V17H46ZM46 14V13H47V14H46ZM43 18V17H42V13H43V12H46V13H44V17H46V18H43Z" fill="#FFEF00"/>
<path d="M35 18V17H39V15H36V14H35V13H36V12H41V13H37V14H40V15H41V17H40V18H35Z" fill="#FFEF00"/>
<path d="M32 15V13H30V15H32ZM29 18V17H28V13H29V12H33V13H34V16H30V17H34V18H29Z" fill="#FFEF00"/>
<path d="M21 18V12H26V13H27V18H25V13H23V18H21Z" fill="#FFEF00"/>
<path d="M15 18V17H14V12H16V17H18V12H20V18H15Z" fill="#FFEF00"/>
<path d="M8 18V12H10V13H11V14H10V18H8ZM11 13V12H13V13H11Z" fill="#FFEF00"/>
</svg>
